<?xml version="1.0" standalone="no"?>
<!DOCTYPE svg PUBLIC "-//W3C//DTD SVG 20010904//EN"
 "http://www.w3.org/TR/2001/REC-SVG-20010904/DTD/svg10.dtd">
<svg version="1.0" xmlns="http://www.w3.org/2000/svg"
 width="1200.000000pt" height="600.000000pt" viewBox="0 0 1200.000000 600.000000"
 preserveAspectRatio="xMidYMid meet">

<g transform="translate(0.000000,600.000000) scale(0.100000,-0.100000)"
fill="#000000" stroke="none">
<path d="M3644 5676 c-140 -45 -254 -153 -316 -297 l-23 -54 -3 -2305 c-2
-1620 1 -2321 8 -2357 26 -126 139 -273 257 -336 112 -60 -16 -57 2438 -57
1928 0 2260 2 2318 15 173 36 318 176 374 360 17 57 18 161 18 2345 l0 2285
-22 70 c-52 165 -178 289 -341 336 -65 18 -135 19 -2352 19 l-2285 -1 -71 -23z
m4771 -45 c78 -38 166 -119 208 -192 15 -25 36 -79 46 -120 19 -73 19 -134 15
-2265 -3 -1204 -7 -2204 -10 -2223 -3 -18 -8 -30 -12 -27 -5 6 -24 230 -22
264 3 45 -9 428 -15 492 -4 30 -7 108 -7 173 0 115 -1 119 -24 127 -13 5 -24
16 -24 25 0 8 -4 15 -10 15 -5 0 -10 -8 -10 -17 0 -10 -3 -29 -7 -42 -5 -21
-3 -23 15 -19 27 7 28 -8 5 -35 -13 -15 -15 -21 -5 -24 18 -7 15 -30 -5 -42
-10 -6 -12 -11 -5 -11 15 0 16 -46 1 -55 -6 -4 -8 -13 -5 -20 3 -8 -1 -19 -9
-25 -17 -14 -15 -84 3 -117 11 -19 9 -22 -11 -25 -13 -2 -21 -9 -18 -18 2 -8
4 -22 5 -30 0 -8 7 -19 13 -25 15 -12 11 -67 -6 -73 -6 -2 -11 -10 -11 -18 0
-8 -6 -14 -14 -14 -12 0 -12 -7 -5 -36 12 -43 4 -90 -18 -98 -9 -4 -13 -14
-10 -26 3 -12 -1 -23 -10 -29 -9 -4 -16 -25 -18 -49 -4 -54 -9 -60 -50 -68
-20 -3 -38 -10 -41 -15 -3 -5 -15 -9 -27 -9 -21 -1 -21 -1 -3 -12 13 -7 29 -7
58 1 30 10 43 10 54 0 11 -9 17 -9 29 1 22 18 33 -16 12 -38 -15 -14 -17 -14
-23 1 -10 28 -26 19 -19 -11 4 -21 1 -33 -14 -46 -18 -16 -20 -16 -41 15 -21
28 -24 29 -33 14 -7 -13 -6 -24 2 -37 17 -27 4 -22 -43 17 -50 41 -56 42 -56
15 0 -11 3 -19 8 -19 22 4 32 -3 32 -21 0 -11 -3 -20 -7 -20 -5 -1 -21 -12
-38 -25 l-29 -24 28 -30 c38 -39 30 -66 -16 -56 -18 4 -40 13 -48 20 -28 22
-50 26 -50 7 0 -25 -38 -46 -93 -52 -43 -5 -48 -4 -53 17 -6 21 1 42 42 127
16 34 17 36 5 36 -4 0 -20 -26 -34 -57 -14 -32 -41 -74 -60 -95 -32 -33 -37
-35 -55 -22 -19 13 -20 13 -9 -21 15 -51 0 -55 -40 -12 -19 21 -38 36 -41 32
-4 -3 -2 -9 4 -13 6 -4 13 -20 16 -35 5 -25 3 -28 -21 -25 -19 2 -27 10 -29
28 -6 42 -19 45 -47 11 -30 -35 -58 -40 -75 -13 -10 15 -11 14 -7 -5 6 -29 4
-29 -30 5 l-28 27 -5 -40 c-4 -34 -7 -37 -16 -22 -9 16 -12 17 -23 3 -14 -17
-61 -22 -61 -7 0 15 -41 24 -53 12 -13 -13 -74 -15 -81 -2 -3 5 -28 8 -56 8
-37 -1 -49 -4 -46 -14 4 -9 -9 -12 -52 -10 -31 1 -63 6 -71 11 -8 5 -16 4 -20
-1 -3 -6 -22 -14 -41 -18 -19 -4 -41 -12 -47 -17 -18 -14 -139 0 -154 18 -17
21 -39 17 -61 -12 -20 -25 -30 -26 -70 -9 -13 5 -18 2 -18 -10 0 -11 -6 -15
-17 -11 -52 14 -82 16 -88 6 -8 -14 -60 -4 -92 17 -21 14 -23 14 -23 -5 0 -28
-15 -35 -39 -21 -15 10 -34 10 -90 -1 -69 -13 -72 -13 -92 8 -24 26 -36 27
-61 5 -15 -13 -23 -14 -41 -5 -27 14 -94 14 -125 -1 -17 -8 -30 -7 -56 6 -29
14 -35 14 -40 1 -6 -16 -52 -19 -61 -4 -4 6 -15 4 -29 -5 -21 -14 -25 -13 -45
4 -23 20 -45 18 -70 -6 -20 -21 -123 -13 -129 9 -3 14 -6 14 -23 -3 -20 -20
-54 -25 -64 -9 -3 6 -17 7 -31 4 -24 -6 -127 20 -150 37 -6 5 -25 -1 -44 -12
-28 -17 -38 -19 -58 -9 -21 9 -27 8 -34 -4 -7 -12 -14 -13 -41 -4 -17 6 -36
16 -40 22 -6 8 -10 7 -14 -1 -2 -7 -22 -13 -43 -13 -30 0 -37 4 -36 18 1 14
-6 16 -42 14 -25 -2 -50 2 -58 9 -13 10 -17 10 -24 -1 -4 -7 -17 -11 -29 -7
-11 3 -37 1 -58 -3 -31 -7 -41 -6 -59 11 -27 25 -40 24 -61 -7 -15 -24 -18
-25 -29 -9 -7 9 -17 14 -22 11 -5 -3 -15 1 -22 9 -18 21 -40 19 -40 -5 0 -11
-7 -20 -15 -20 -8 0 -15 5 -15 10 0 6 -16 8 -41 4 -35 -6 -41 -4 -45 14 -4 14
-16 21 -42 25 -41 5 -53 0 -33 -12 9 -6 6 -10 -10 -14 -31 -8 -36 -1 -14 23
27 30 12 34 -34 11 -51 -27 -66 -26 -85 1 -9 12 -16 17 -16 9 0 -15 -61 -5
-71 12 -10 14 -39 1 -39 -18 0 -23 -13 -18 -46 15 -29 30 -57 42 -35 16 16
-19 -5 -32 -24 -16 -17 14 -20 71 -4 87 8 8 8 13 0 17 -6 4 -11 1 -11 -6 0 -7
-7 -22 -15 -32 -14 -19 -15 -19 -22 0 -8 21 -35 54 -44 54 -4 0 2 -17 12 -37
17 -34 25 -73 15 -73 -2 0 -11 -3 -19 -6 -11 -4 -16 2 -19 23 l-3 28 -18 -33
c-16 -30 -22 -33 -55 -30 -46 5 -53 31 -22 90 29 56 19 58 -20 4 -39 -54 -46
-57 -89 -39 -29 12 -33 18 -29 43 4 24 2 27 -12 20 -13 -7 -20 -3 -31 18 -7
15 -13 32 -14 37 0 6 -5 16 -9 24 -7 10 -1 21 17 36 35 27 35 43 1 20 -14 -9
-28 -14 -31 -11 -3 3 -7 26 -10 52 -2 27 -10 52 -19 58 -16 12 -16 78 0 104
11 19 -1 27 -18 13 -11 -9 -16 -9 -21 0 -4 6 -2 15 5 19 10 6 8 14 -9 35 -26
34 -27 51 -3 64 16 10 16 10 0 11 -12 0 -18 8 -18 24 0 33 18 43 35 20 17 -23
19 -15 5 21 -8 20 -15 25 -29 20 -13 -4 -24 1 -35 16 -18 27 -13 37 9 19 20
-17 20 4 0 44 -14 26 -14 31 0 52 14 21 13 27 -2 64 -10 22 -21 40 -26 40 -4
0 -5 4 -2 10 3 5 8 22 10 37 2 16 7 38 11 50 5 18 2 23 -12 23 -9 0 -26 7 -36
17 -11 9 -18 11 -18 5 0 -7 5 -12 10 -12 6 0 10 -7 10 -15 0 -8 -4 -15 -8 -15
-16 0 -34 -68 -23 -88 6 -11 8 -22 4 -25 -3 -4 0 -13 7 -22 11 -13 10 -19 -4
-34 -14 -16 -18 -51 -22 -232 -8 -304 -10 -357 -20 -419 -16 -96 -19 288 -22
2421 l-3 2036 21 62 c49 146 159 257 299 302 53 17 168 18 2376 16 l2320 -2
70 -34z m149 -4086 c3 -8 1 -15 -4 -15 -6 0 -10 7 -10 15 0 8 2 15 4 15 2 0 6
-7 10 -15z m-64 -452 c0 -14 -19 -38 -25 -32 -8 8 5 39 16 39 5 0 9 -3 9 -7z
m-190 -307 c0 -28 -22 -49 -47 -44 -29 5 -27 35 4 52 38 21 43 20 43 -8z m40
-75 c0 -12 -9 -20 -25 -23 -21 -4 -23 -2 -15 13 8 14 19 22 38 28 1 1 2 -7 2
-18z m-3450 -161 c0 -5 -4 -10 -10 -10 -5 0 -10 5 -10 10 0 6 5 10 10 10 6 0
10 -4 10 -10z m1157 -36 c-3 -3 -12 -4 -19 -1 -8 3 -5 6 6 6 11 1 17 -2 13 -5z"/>
<path d="M5625 4988 c-191 -13 -316 -43 -445 -108 -227 -114 -391 -322 -454
-575 -32 -127 -36 -288 -36 -1317 0 -1135 2 -1177 61 -1343 101 -288 341 -502
634 -568 264 -59 716 -42 1105 43 254 55 576 152 717 216 174 80 204 95 209
107 3 8 -28 81 -69 163 -41 82 -98 201 -128 264 -29 63 -58 118 -62 121 -5 4
-51 -11 -102 -32 -380 -155 -1019 -294 -1239 -269 -193 22 -287 84 -363 239
l-28 56 -3 1014 c-3 1136 -7 1068 71 1182 48 72 114 121 196 147 93 28 365 23
556 -12 280 -51 629 -152 829 -240 32 -14 65 -26 72 -26 8 0 28 30 45 68 45
99 117 252 175 372 39 79 49 108 40 117 -17 18 -278 129 -406 173 -133 46
-185 60 -435 120 -285 69 -680 106 -940 88z"/>
<path d="M8575 1980 c-3 -6 1 -7 9 -4 18 7 21 14 7 14 -6 0 -13 -4 -16 -10z"/>
<path d="M3400 1894 c0 -4 5 -24 12 -46 10 -33 9 -41 -2 -48 -18 -11 -6 -25
13 -17 10 4 14 17 12 39 -2 18 -4 43 -4 56 -1 13 -7 22 -16 22 -8 0 -15 -3
-15 -6z"/>
<path d="M3555 1020 c3 -5 8 -10 11 -10 2 0 4 5 4 10 0 6 -5 10 -11 10 -5 0
-7 -4 -4 -10z"/>
<path d="M8235 943 c-46 -11 -30 -19 38 -19 39 0 60 2 45 4 -16 2 -28 8 -28
13 0 9 -20 10 -55 2z"/>
<path d="M3700 930 c0 -6 11 -8 28 -4 39 10 40 14 4 14 -18 0 -32 -5 -32 -10z"/>
<path d="M8205 824 c-9 -14 -15 -27 -13 -30 2 -2 12 10 22 26 21 37 15 40 -9
4z"/>
<path d="M3861 825 c0 -12 23 -45 33 -45 3 0 6 7 6 15 0 8 -6 15 -14 15 -8 0
-17 6 -19 13 -3 6 -6 8 -6 2z"/>
<path d="M3676 804 c-20 -19 -20 -24 -2 -24 7 0 16 9 19 20 6 24 3 25 -17 4z"/>
<path d="M3718 793 c-10 -2 -18 -11 -18 -19 0 -19 7 -18 32 6 22 20 19 22 -14
13z"/>
</g>
</svg>
