<?xml version="1.0" standalone="no"?>
<!DOCTYPE svg PUBLIC "-//W3C//DTD SVG 20010904//EN"
 "http://www.w3.org/TR/2001/REC-SVG-20010904/DTD/svg10.dtd">
<svg version="1.0" xmlns="http://www.w3.org/2000/svg"
 width="2048.000000pt" height="1024.000000pt" viewBox="0 0 2048.000000 1024.000000"
 preserveAspectRatio="xMidYMid meet">

<g transform="translate(0.000000,1024.000000) scale(0.100000,-0.100000)"
fill="#000000" stroke="none">
<path d="M9892 10229 c-1570 -106 -3014 -937 -3891 -2239 -150 -223 -240 -377
-357 -614 -439 -888 -607 -1889 -484 -2892 178 -1457 991 -2781 2210 -3603
223 -150 377 -240 614 -357 888 -439 1889 -607 2892 -484 1457 178 2781 991
3603 2210 150 223 240 377 357 614 439 888 607 1889 484 2892 -178 1457 -991
2781 -2210 3603 -416 280 -842 488 -1310 639 -596 192 -1274 274 -1908 231z
m658 -4649 c0 -1446 -3 -2630 -7 -2630 -4 0 -109 -16 -233 -35 -581 -90 -891
-118 -1285 -119 -324 0 -458 12 -692 59 -268 55 -557 174 -724 299 -333 251
-557 673 -624 1181 -22 161 -22 443 0 608 41 316 146 609 301 844 79 121 271
311 394 392 265 174 606 292 959 332 192 21 581 2 738 -37 l23 -6 2 854 c3
707 5 858 17 871 12 15 65 17 572 17 l559 0 0 -2630z m1810 2030 l0 -580 -555
0 -555 0 0 580 0 580 555 0 555 0 0 -580z m20 -2359 c0 -1988 -41 -2612 -201
-3067 -41 -117 -118 -267 -178 -346 -153 -201 -631 -566 -779 -594 -64 -12
-217 49 -599 242 -198 100 -383 190 -410 199 -26 10 -51 21 -55 24 -4 3 41 35
100 70 189 113 415 268 502 344 247 215 387 502 444 907 38 275 39 322 43
1863 l4 1517 62 1 c34 0 253 7 487 13 234 7 460 14 503 14 l77 2 0 -1189z"/>
<path d="M8825 5606 c-385 -75 -644 -371 -706 -805 -17 -119 -6 -333 21 -441
132 -512 570 -742 1198 -628 l62 11 0 908 0 908 -42 12 c-169 45 -402 60 -533
35z"/>
</g>
</svg>
